<?xml version="1.0" encoding="utf-8"?>
<!-- Generator: Adobe Illustrator 26.0.2, SVG Export Plug-In . SVG Version: 6.00 Build 0)  -->
<svg version="1.1" id="visual" xmlns="http://www.w3.org/2000/svg" xmlns:xlink="http://www.w3.org/1999/xlink" x="0px" y="0px"
	 viewBox="0 0 900 600" style="enable-background:new 0 0 900 600;" xml:space="preserve">
<style type="text/css">
	.st0{fill:#A7233A;}
</style>
<polygon class="st0" points="145.5,351.3 188.7,394.5 155.5,427.7 112.3,384.5 69.1,427.7 35.9,394.5 79.1,351.3 35.9,308.1 
	69.1,274.9 112.3,318.1 155.5,274.9 188.7,308.1 "/>
<polygon class="st0" points="196,470 205.4,479.4 198.1,486.7 188.7,477.3 179.3,486.7 172,479.4 181.4,470 172,460.6 179.3,453.3 
	188.7,462.7 198.1,453.3 205.4,460.6 "/>
<polygon class="st0" points="806,201 815.4,210.4 808.2,217.7 798.7,208.3 789.3,217.7 782,210.4 791.5,201 782,191.6 789.3,184.3 
	798.7,193.7 808.2,184.3 815.4,191.6 "/>
<polygon class="st0" points="259,91 268.4,100.4 261.2,107.7 251.7,98.3 242.3,107.7 235,100.4 244.5,91 235,81.6 242.3,74.3 
	251.7,83.7 261.2,74.3 268.4,81.6 "/>
<polygon class="st0" points="705.7,85.3 729.6,109.2 711.2,127.6 687.3,103.7 663.4,127.6 645,109.2 668.9,85.3 645,61.4 663.4,43 
	687.3,66.9 711.2,43 729.6,61.4 "/>
<polygon class="st0" points="861,417.7 930.1,486.8 876.8,540.1 807.7,471 738.6,540.1 685.3,486.8 754.5,417.7 685.3,348.6 
	738.6,295.3 807.7,364.5 876.8,295.3 930.1,348.6 "/>
</svg>
